<svg width="24" height="28" viewBox="0 0 24 28" fill="none" xmlns="http://www.w3.org/2000/svg">
<path d="M0 1.16667V26.8333C0 27.1428 0.122916 27.4395 0.341709 27.6583C0.560501 27.8771 0.857247 28 1.16667 28H22.1667C22.4761 28 22.7728 27.8771 22.9916 27.6583C23.2104 27.4395 23.3333 27.1428 23.3333 26.8333V1.16667C23.3333 0.857247 23.2104 0.560501 22.9916 0.341709C22.7728 0.122916 22.4761 0 22.1667 0L1.16667 0C0.857247 0 0.560501 0.122916 0.341709 0.341709C0.122916 0.560501 0 0.857247 0 1.16667ZM3.5 5.83333H10.5V12.8333H3.5V5.83333ZM19.8333 22.1667H3.5V19.8333H19.8333V22.1667ZM19.8333 17.5H3.5V15.1667H19.8333V17.5ZM19.8333 12.8333H12.8333V10.5H19.8333V12.8333ZM19.8333 8.16667H12.8333V5.83333H19.8333V8.16667Z" fill="#3629B7"/>
</svg>