<svg width="28" height="15" viewBox="0 0 28 15" fill="none" xmlns="http://www.w3.org/2000/svg">
<path d="M27.1245 9.18246C26.1511 8.1283 24.8272 7.66434 23.6291 7.94119C24.3921 7.00263 24.5037 5.48755 23.8637 4.39991C23.2123 3.2925 21.8504 2.70533 20.6254 3.005C19.6209 3.24991 18.7746 3.97855 18.3338 4.93536C18.4369 4.15653 18.4299 3.20275 18.0809 2.27028C17.657 1.13853 16.7782 0.292762 15.785 0.0630654C14.5742 -0.216829 13.1656 0.454005 12.3574 1.6968C11.8389 2.49389 11.4928 3.51459 11.367 4.57333C11.1749 3.84469 10.7242 3.17537 10.1054 2.77379C9.1856 2.17749 7.94088 2.15923 6.93352 2.72511C5.99539 3.25295 5.26071 4.27366 4.96825 5.45865C4.71818 6.47479 4.77751 7.5822 5.1392 8.67744C4.26747 7.87122 3.35195 7.09847 2.12419 7.33273C1.30191 7.48941 0.622332 8.03398 0.260643 8.82651C-0.0996333 9.61448 -0.0855034 10.5196 0.297378 11.3106C0.944462 12.6462 2.2683 13.4798 4.34236 13.8585C5.77781 14.1202 7.25565 14.1369 8.68404 14.1521C8.94965 14.1552 9.21386 14.1582 9.47947 14.1628C9.68857 14.1658 9.87366 14.1704 10.0446 14.1765C11.2159 14.216 12.3885 14.2419 13.5287 14.2525C14.0189 14.2571 14.5064 14.2601 14.9952 14.2601C16.7684 14.2601 18.5231 14.2267 20.2312 14.1612C20.6537 14.1445 21.0832 14.1202 21.4986 14.0974C22.1117 14.0624 22.7447 14.0274 23.3678 14.0167C24.4161 13.997 25.3528 13.9468 26.2062 13.536C26.9437 13.1801 27.9298 12.5701 27.9963 11.3821C28.0386 10.6291 27.7207 9.82744 27.1245 9.18246Z" fill="#525B81"/>
</svg>