<svg width="165" height="60" viewBox="0 0 165 60" fill="none" xmlns="http://www.w3.org/2000/svg">
<path d="M81.4494 26.0028C71.0282 26.8933 44.5334 26.7721 27.7266 22.0845C17.7241 19.2937 5.02828 14.7824 0.595698 0C0.595698 0 -0.10144 12.3193 17.5552 21.5912C15.5015 21.9581 13.4389 22.3 11.351 22.3659C10.1813 22.4033 9.02065 22.3428 7.86714 22.1558C6.4495 21.926 5.04984 21.7835 3.63939 22.1593C2.37448 22.4977 1.19581 23.2173 0.419616 24.2627C-0.340408 25.2868 -0.0547243 26.4854 1.16886 26.9413C1.58211 27.0945 2.03669 27.1568 2.46791 27.0625C3.2477 26.8897 3.64478 26.204 3.93406 25.5254C3.93406 25.5254 2.52361 27.2744 1.19402 26.1524C0.385479 25.4702 0.924503 24.0739 2.99076 23.4666C5.32115 22.7809 9.51835 23.6287 9.51835 23.6287C8.65052 24.1576 7.81863 24.7596 7.02806 25.3954C5.71823 26.4498 4.27005 27.7179 3.92867 29.4348C3.84422 29.8586 3.82446 30.2932 3.87117 30.7224C4.04007 32.2452 4.95101 33.467 6.51598 33.7697C8.03423 34.0636 10.4742 33.8125 11.2253 32.2363C11.5846 31.4811 11.3115 30.2042 10.5623 29.7625C10.1274 29.506 9.47702 29.5861 9.21829 30.0171C9.5992 29.6912 10.2335 29.9245 10.5066 30.3431C10.9575 31.0341 10.6629 32.0244 10.0178 32.5408C9.37281 33.0573 8.48163 33.1731 7.65692 33.0823C6.90408 32.9986 6.14945 32.7457 5.58886 32.2399C4.58268 31.3298 4.65815 29.8622 5.3481 28.7883C6.02547 27.7339 7.16461 27.0553 8.23368 26.4462C10.1185 25.3723 12.1757 24.5993 14.3067 24.1701C14.5492 24.122 14.8745 24.0009 15.117 24.0739C14.3193 25.9814 13.4173 29.3902 15.9687 30.3698C17.787 31.068 19.0932 29.4828 19.4957 27.8675C19.201 28.3181 18.8489 28.7402 18.4051 29.0465C17.9595 29.3528 17.4133 29.5345 16.876 29.4739C16.1214 29.3902 15.453 28.7972 15.2859 28.0634C15.1727 27.5647 15.2751 27.0357 15.48 26.5673C16.3298 24.6207 18.2757 23.4791 20.2827 22.9323C24.081 24.6723 28.6106 26.2699 34.0134 27.6092C34.2542 27.6609 34.495 27.7107 34.7357 27.7606C33.4313 28.5104 30.9446 29.9317 30.4199 30.1917C29.9618 30.4179 29.2341 30.3449 28.74 30.3769C27.7176 30.441 26.6935 30.5069 25.6765 30.6334C24.1241 30.8275 22.0004 31.1552 20.9025 32.3948C20.3366 33.0342 20.2503 34.0333 20.784 34.7368C21.1685 35.2444 21.862 35.3548 22.4585 35.1803C22.9203 35.0432 23.3677 34.6994 23.5617 34.2666C23.1754 34.4448 22.7496 34.5979 22.3184 34.5765C21.0121 34.5142 21.1325 33.166 22.0201 32.5961C22.7837 32.1063 26.4671 31.3048 28.3986 31.5275C28.2584 31.5114 27.7194 32.2203 27.6332 32.3129C27.0169 32.9718 26.4311 33.6575 25.8831 34.3735C24.7099 35.9087 23.1862 38.0228 23.4539 40.0531C23.5977 41.1378 24.3038 42.1227 25.2615 42.6677C27.2505 43.7968 31.3345 43.0559 31.2105 40.1956C31.1692 39.2499 30.3822 38.3398 29.4263 38.3167C29.4874 38.3184 29.9905 39.0077 30.0642 39.111C30.2942 39.4351 30.4415 39.8002 30.4559 40.201C30.4936 41.3497 29.5719 42.0853 28.4974 42.2064C27.3349 42.3382 25.9119 41.9784 25.1572 41.038C24.09 39.7058 25.1051 37.7378 25.8759 36.4929C26.5749 35.362 27.4751 34.2827 28.4794 33.4046C29.0041 32.9451 29.5683 32.5302 30.1612 32.1597C30.4073 32.0048 31.9364 31.4117 31.9903 31.2158C31.4027 33.3263 31.1404 36.2311 33.2857 37.5651C33.8445 37.9124 34.5273 38.1047 35.1741 37.9747C36.8307 37.6434 36.9619 35.7289 35.5802 34.9969C35.7311 35.264 35.8856 35.5347 35.9593 35.8321C36.033 36.1296 36.0186 36.4626 35.8497 36.7191C35.6898 36.9649 35.4095 37.1127 35.122 37.1768C34.8381 37.2409 34.5363 37.2302 34.2632 37.1305C33.823 36.9684 33.496 36.5873 33.3019 36.1652C32.6245 34.6887 32.5976 31.6628 34.0565 30.5942C34.8291 30.0278 37.2098 28.9646 38.3616 28.4641C43.0529 29.2958 47.6256 29.823 52.0204 30.1258C50.4213 31.0662 47.9706 32.7474 47.0686 33.312C44.6771 34.8081 38.0525 36.2347 39.6552 40.347C40.4224 42.315 43.6332 41.5456 42.8768 39.5456C42.8768 39.5456 42.2174 41.2072 41.2004 40.851C40.1817 40.4948 39.8223 38.655 41.1411 37.6452C42.4581 36.6354 45.7893 35.0325 46.2493 34.9149C46.2493 34.9149 41.6801 42.632 47.489 45.0667C49.7368 45.918 51.8497 44.0818 52.245 41.9214C52.3708 41.2304 52.2953 40.4378 51.7779 39.9587C51.1436 39.3692 49.9955 39.5812 49.5804 40.3239C49.9182 39.7219 51.1436 40.4646 51.2838 40.8991C51.5676 41.7879 50.7555 42.8903 50.0835 43.4014C49.1672 44.0996 48.055 43.9286 47.1243 43.3373C45.518 42.3133 46.093 39.5117 46.7829 38.0887C47.9167 35.7467 50.5597 33.8873 52.6511 32.409C53.6177 31.7269 54.6024 31.0697 55.5978 30.4286C55.6355 30.4036 55.6822 30.3698 55.7343 30.3306C65.2247 30.726 73.7755 30.1204 80.7918 29.36C78.3985 30.6405 73.6551 33.166 72.9436 33.4314C72.3057 33.6682 71.402 33.5151 70.739 33.5204C69.3986 33.5311 68.0546 33.5881 66.7304 33.8089C63.5861 34.3325 59.7662 35.866 59.2056 39.1306C58.9846 40.4236 59.6602 41.5474 60.8586 41.9072C61.4228 42.0764 62.0678 42.0408 62.5566 41.7184C63.0471 41.396 63.3364 40.7566 63.1603 40.1992C62.9842 39.6417 62.2942 39.2748 61.7588 39.5153C62.217 39.3105 62.4955 40.3613 62.4146 40.6248C62.2421 41.1859 61.4605 41.396 60.961 41.1966C60.4005 40.9739 60.0609 40.363 60.0501 39.7646C60.0303 38.6408 60.8874 37.7913 61.7444 37.1875C64.4234 35.2978 67.8031 34.6656 71.0857 34.4875C70.6581 34.5106 69.7579 35.4457 69.4112 35.7128C68.7949 36.1848 68.1912 36.6728 67.6126 37.1875C66.4699 38.2027 65.4116 39.3229 64.5635 40.5928C63.3561 42.4005 62.6716 44.7123 63.7424 46.748C66.7681 52.5006 74.7529 46.0552 70.6707 42.99C71.4846 43.6009 70.394 46.0605 69.8532 46.6001C69.6304 46.8228 69.3483 46.9813 69.0536 47.1006C66.0351 48.3295 64.6156 45.4069 65.8069 42.9455C66.6639 41.1716 68.1319 39.745 69.5064 38.3612C71.6247 36.2293 74.2103 33.9585 77.1354 33.0164C77.1354 33.0164 74.0198 41.7807 77.9134 42.4557C80.2096 42.8547 81.2104 39.3853 78.3859 39.3746C79.9347 39.3817 79.6706 42.1191 78.0607 41.7843C75.2326 41.1948 78.0284 33.2853 79.1118 32.0083C79.9491 31.0199 83.0413 29.6645 85.0141 28.8684C90.1923 28.2237 94.2638 27.5932 96.8996 27.4365C99.088 27.3065 101.78 27.1016 104.795 26.9449C102.874 27.985 100.921 28.961 98.8778 29.7411C97.3165 30.3377 95.7191 30.7954 94.0715 31.0768C92.0466 31.4241 90.0863 31.8819 88.3633 33.0538C86.8162 34.1046 85.5711 35.638 85.0249 37.4315C84.4895 39.1858 85.4507 40.6907 87.3229 40.7424C87.9554 40.7602 88.6004 40.6338 89.1359 40.3025C90.1061 39.7023 90.3127 38.5803 90.3774 37.517C90.3774 37.517 89.3119 40.5661 86.978 39.6506C85.5585 39.095 85.616 36.9364 88.1153 35.1411C90.9326 33.1179 97.011 32.32 97.011 32.32C96.0929 33.4474 95.2592 34.6585 94.4974 35.8963C93.2324 37.948 91.8867 40.3559 92.2514 42.8636C92.3413 43.4816 92.5227 44.0871 92.7922 44.6517C93.7499 46.6554 95.5682 47.9003 97.8267 47.585C100.019 47.2787 103.194 45.7969 103.451 43.2928C103.575 42.0942 102.59 40.4735 101.366 40.2188C100.655 40.071 99.8175 40.4824 99.6756 41.1948C100.033 40.5714 101.003 40.5946 101.573 41.0398C102.513 41.7736 102.594 43.2661 101.97 44.2724C101.347 45.2786 100.198 45.8539 99.0413 46.1121C97.983 46.349 96.8421 46.3561 95.8431 45.9251C94.0464 45.1522 93.4445 43.1076 93.8595 41.3194C94.2674 39.5616 95.482 38.1029 96.6319 36.7725C98.6604 34.4269 101.07 32.409 103.74 30.8293C104.043 30.6494 104.426 30.3324 104.787 30.3199C104.626 33.2978 105.044 38.379 108.959 38.5286C111.752 38.6355 112.752 35.8589 112.521 33.4634C112.339 34.2168 112.066 34.9577 111.613 35.5828C111.16 36.2079 110.508 36.712 109.752 36.8794C108.693 37.1163 107.506 36.6158 106.927 35.6915C106.534 35.0628 106.421 34.2934 106.473 33.556C106.67 30.7278 108.465 28.4071 110.67 26.7401C117.129 26.6421 124.381 27.0055 131.122 28.717C128.849 30.0866 125.897 32.0635 124.729 32.7813C121.26 34.9096 111.644 36.9382 113.971 42.787C115.083 45.5867 119.743 44.4914 118.646 41.6472C118.646 41.6472 117.69 44.0123 116.213 43.5047C114.736 42.9989 114.213 40.3809 116.127 38.9454C118.04 37.5099 122.872 35.2302 123.54 35.061C123.54 35.061 116.908 46.0391 125.339 49.4996C128.6 50.7089 131.668 48.0998 132.24 45.0275C132.423 44.0462 132.312 42.917 131.562 42.2349C130.641 41.396 128.977 41.6988 128.375 42.7532C128.866 41.8965 130.644 42.9544 130.846 43.5724C131.259 44.8369 130.078 46.4042 129.105 47.1309C127.775 48.1229 126.16 47.8825 124.81 47.0383C122.478 45.5814 123.314 41.5973 124.314 39.5723C125.958 36.2418 129.794 33.5952 132.831 31.4954C133.6 30.9629 134.376 30.4428 135.16 29.9317C141.694 32.1989 149.304 35.7271 155.633 39.0184C153.776 40.0193 151.884 40.9561 149.909 41.7095C148.348 42.3061 146.75 42.7638 145.103 43.0452C143.078 43.3925 141.118 43.8503 139.394 45.0222C137.847 46.073 136.602 47.6064 136.056 49.3999C135.521 51.1542 136.482 52.6591 138.354 52.7108C138.987 52.7286 139.632 52.6021 140.167 52.2709C141.137 51.6707 141.344 50.5486 141.409 49.4854C141.409 49.4854 140.343 52.5345 138.009 51.619C136.59 51.0634 136.647 48.9048 139.147 47.1095C141.964 45.0863 148.042 44.2884 148.042 44.2884C147.124 45.4158 146.29 46.6269 145.529 47.8647C144.264 49.9164 142.918 52.3243 143.283 54.832C143.373 55.45 143.554 56.0555 143.823 56.6201C144.781 58.6237 146.599 59.8687 148.858 59.5534C151.05 59.2471 154.225 57.7653 154.482 55.2612C154.606 54.0626 153.621 52.4419 152.398 52.1872C151.686 52.0393 150.849 52.4508 150.707 53.1614C151.064 52.538 152.035 52.5612 152.604 53.0064C153.544 53.7402 153.625 55.2327 153.001 56.239C152.378 57.2452 151.23 57.8205 150.073 58.0787C149.014 58.3156 147.873 58.3227 146.874 57.8917C145.078 57.1188 144.476 55.0742 144.891 53.2861C145.299 51.5282 146.513 50.0695 147.663 48.7391C149.692 46.3935 152.101 44.3757 154.771 42.7959C155.075 42.616 155.457 42.299 155.819 42.2865C155.657 45.2644 156.076 50.3456 159.991 50.4952C162.783 50.6021 163.784 47.8255 163.552 45.43C163.37 46.1834 163.097 46.9243 162.644 47.5494C162.19 48.1745 161.539 48.6786 160.783 48.846C159.725 49.0829 158.537 48.5824 157.958 47.6581C157.565 47.0294 157.452 46.26 157.504 45.5226C157.623 43.82 158.321 42.299 159.34 40.9953C161.532 42.1975 163.464 43.3195 165 44.2759V31.1677C165 31.1677 150.985 18.3444 130.862 18.5225C110.738 18.7006 91.8705 25.1122 81.4494 26.0028Z" fill="#7C8EE4"/>
</svg>